<svg width="182" height="172" viewBox="0 0 182 172" fill="none" xmlns="http://www.w3.org/2000/svg">
<ellipse cx="91" cy="86" rx="91" ry="86" fill="#6C757D" fill-opacity="0.7"/>
<path d="M121.41 87.6875V129.055H115.258L112.504 119.035C107.582 126.066 100.258 129.582 90.5312 129.582C79.9844 129.582 71.7812 125.617 65.9219 117.688C60.0625 109.758 57.1328 100.129 57.1328 88.8008C57.1328 76.6914 60.2383 66.5938 66.4492 58.5078C72.6602 50.4219 81.0977 46.3789 91.7617 46.3789C106.488 46.3789 116.098 54.1133 120.59 69.582L111.098 71.8672C109.73 65.9297 107.172 61.6133 103.422 58.918C99.6719 56.2227 95.5703 54.875 91.1172 54.875C83.2266 54.875 77.4062 58.0586 73.6562 64.4258C69.9062 70.793 68.0312 78.7812 68.0312 88.3906C68.0312 98.7422 70.1211 106.848 74.3008 112.707C78.5195 118.527 84.2422 121.438 91.4688 121.438C97.0938 121.438 101.781 119.582 105.531 115.871C109.32 112.121 111.215 106.965 111.215 100.402C111.215 99.1914 111.176 97.7461 111.098 96.0664H91.293V87.6875H121.41Z" fill="white"/>
</svg>
